<svg width="499" height="134" viewBox="0 0 499 134" fill="none" xmlns="http://www.w3.org/2000/svg">
    <path d="M51.873 106.231L43.233 121.661C40.553 126.451 36.303 130.031 31.333 131.931C33.883 132.911 36.663 133.461 39.653 133.461C48.003 133.461 55.703 128.951 59.783 121.661L68.423 106.231C71.253 101.181 75.513 97.7613 80.273 95.9513C70.203 92.1313 57.853 95.5613 51.873 106.231Z" fill="#E2000F"/>
    <path d="M157.563 99.1313L108.673 11.7913C102.693 1.11128 90.3429 -2.30872 80.2729 1.51128C85.0429 3.32128 89.303 6.74128 92.123 11.7913L141.013 99.1313C148.163 111.901 141.693 127.141 129.203 131.931C131.793 132.921 134.573 133.461 137.433 133.461C155.063 133.461 166.173 114.511 157.563 99.1313Z" fill="#E2000F"/>
    <path d="M19.5232 99.1313L68.4132 11.7913C71.2432 6.74128 75.5032 3.32128 80.2632 1.51128C70.1932 -2.30872 57.8432 1.11128 51.8632 11.7913L2.97318 99.1313C-5.63682 114.511 5.48319 133.461 23.1032 133.461C25.9632 133.461 28.7432 132.921 31.3332 131.931C18.8432 127.141 12.3732 111.901 19.5232 99.1313Z" fill="#2D00FF"/>
    <path d="M117.313 121.661L108.673 106.231C102.693 95.5512 90.3434 92.1312 80.2734 95.9512C85.0434 97.7612 89.3035 101.181 92.1235 106.231L100.763 121.661C104.843 128.951 112.543 133.461 120.893 133.461C123.873 133.461 126.663 132.911 129.213 131.931C124.243 130.031 119.993 126.451 117.313 121.661Z" fill="#2D00FF"/>
    <path d="M141.023 99.1313L92.1331 11.7912C89.3031 6.74123 85.0431 3.32123 80.2831 1.51123C75.5131 3.32123 71.2531 6.74123 68.4331 11.7912L19.5431 99.1313C12.3931 111.901 18.8631 127.141 31.3531 131.931C36.3231 130.031 40.5731 126.451 43.2531 121.661L51.8931 106.231C57.8731 95.5512 70.2231 92.1312 80.2931 95.9512C90.3631 92.1312 102.713 95.5512 108.693 106.231L117.333 121.661C120.013 126.451 124.263 130.031 129.233 131.931C141.703 127.141 148.173 111.901 141.023 99.1313Z" fill="black"/>
    <path d="M234.523 37.2313C236.463 37.2313 237.763 38.2013 238.433 40.1413L257.243 97.6713C257.663 98.8213 257.633 99.7613 257.153 100.491C256.673 101.221 255.883 101.581 254.793 101.581H240.983C238.863 101.581 237.533 100.581 236.983 98.5813L234.983 91.5813H217.623L215.713 98.5813C215.163 100.581 213.833 101.581 211.713 101.581H197.903C196.813 101.581 196.023 101.221 195.543 100.491C195.063 99.7613 195.023 98.8213 195.453 97.6713L214.263 40.1413C214.933 38.2013 216.233 37.2313 218.173 37.2313H234.523ZM231.703 75.4013L226.523 56.6813H226.253L220.713 75.4013H231.703Z" fill="#181B20"/>
    <path d="M282.053 98.4813C282.053 100.541 281.023 101.571 278.963 101.571H266.243C264.183 101.571 263.153 100.541 263.153 98.4813V40.3214C263.153 38.2614 264.183 37.2313 266.243 37.2313H278.963C281.023 37.2313 282.053 38.2614 282.053 40.3214V98.4813Z" fill="#181B20"/>
    <path d="M309.223 57.4914C310.493 55.7314 312.483 54.2814 315.173 53.1314C317.873 51.9814 320.463 51.4014 322.943 51.4014C329.243 51.4014 334.033 53.5314 337.303 57.8114C340.573 62.0814 342.213 68.4914 342.213 77.0314C342.213 85.5714 340.573 91.9814 337.303 96.2514C334.033 100.521 329.243 102.661 322.943 102.661C320.523 102.661 318.053 102.171 315.533 101.211C313.023 100.241 311.183 98.9114 310.033 97.2114V108.481C310.033 110.541 309.003 111.571 306.943 111.571H294.223C292.163 111.571 291.133 110.541 291.133 108.481V55.5914C291.133 53.5314 292.163 52.5014 294.223 52.5014H305.313C307.013 52.5014 308.073 53.2914 308.493 54.8614L309.223 57.4914ZM311.493 85.6714C312.583 87.4314 314.253 88.3114 316.493 88.3114C318.733 88.3114 320.383 87.4514 321.443 85.7214C322.503 83.9914 323.033 81.1014 323.033 77.0414C323.033 72.9814 322.503 70.0914 321.443 68.3614C320.383 66.6314 318.733 65.7714 316.493 65.7714C314.253 65.7714 312.583 66.6514 311.493 68.4114C310.403 70.1714 309.853 73.0414 309.853 77.0414C309.853 81.0414 310.403 83.9114 311.493 85.6714Z" fill="#181B20"/>
    <path d="M395.474 98.4814C395.474 100.541 394.443 101.571 392.383 101.571H381.844C380.144 101.571 379.083 100.781 378.663 99.2114L377.844 96.5814C374.694 100.401 369.663 102.301 362.753 102.301C358.273 102.301 354.603 101.061 351.753 98.5714C348.903 96.0814 347.483 92.3914 347.483 87.4814C347.483 85.1814 347.783 83.1514 348.393 81.3914C349.003 79.6314 349.934 78.1814 351.214 77.0314C352.484 75.8814 353.913 74.9214 355.483 74.1714C357.063 73.4114 359.043 72.8214 361.433 72.4014C363.823 71.9814 366.203 71.6914 368.563 71.5414C370.923 71.3914 373.774 71.2814 377.104 71.2214V69.8614C377.104 66.7714 374.493 65.2314 369.283 65.2314C365.583 65.2314 361.493 66.0214 357.013 67.5914C355.073 68.3214 353.774 67.6814 353.104 65.6814L350.923 58.9614C350.313 57.1414 350.953 55.8414 352.833 55.0514C358.833 52.6314 365.343 51.4214 372.373 51.4214C379.943 51.4214 385.684 52.9014 389.594 55.8714C393.504 58.8414 395.453 63.1714 395.453 68.8714V98.4814H395.474ZM377.113 80.3014C372.813 80.3614 369.783 80.8014 368.023 81.6214C366.263 82.4414 365.383 83.9414 365.383 86.1214C365.383 87.5714 365.823 88.7114 366.703 89.5314C367.583 90.3514 368.813 90.7614 370.383 90.7614C374.863 90.7614 377.113 88.5214 377.113 84.0414V80.3014Z" fill="#181B20"/>
    <path d="M409.463 57.9014C414.133 53.5714 420.553 51.4014 428.733 51.4014C431.583 51.4014 434.443 51.7314 437.323 52.4014C440.203 53.0714 442.453 53.9114 444.093 54.9414C445.913 56.0914 446.423 57.5514 445.633 59.3014L442.543 66.2114C441.753 67.9714 440.243 68.4514 438.003 67.6614C435.463 66.8114 433.093 66.3914 430.913 66.3914C424.733 66.3914 421.643 69.9314 421.643 77.0214C421.643 84.1114 424.793 87.6514 431.093 87.6514C433.703 87.6514 436.123 87.1714 438.363 86.2014C440.543 85.2314 442.063 85.7214 442.903 87.6514L445.993 94.4714C446.783 96.2314 446.263 97.7114 444.443 98.9214C442.803 100.011 440.553 100.901 437.673 101.601C434.793 102.301 431.873 102.641 428.903 102.641C420.663 102.641 414.193 100.471 409.503 96.1414C404.803 91.8114 402.463 85.4314 402.463 77.0114C402.463 68.5914 404.803 62.2314 409.463 57.9014Z" fill="#181B20"/>
    <path d="M498.073 98.4814C498.073 100.541 497.043 101.571 494.983 101.571H484.443C482.743 101.571 481.683 100.781 481.263 99.2114L480.443 96.5814C477.293 100.401 472.264 102.301 465.354 102.301C460.874 102.301 457.204 101.061 454.354 98.5714C451.504 96.0814 450.083 92.3914 450.083 87.4814C450.083 85.1814 450.383 83.1514 450.993 81.3914C451.603 79.6314 452.543 78.1814 453.813 77.0314C455.083 75.8814 456.513 74.9214 458.083 74.1714C459.663 73.4114 461.643 72.8214 464.033 72.4014C466.423 71.9814 468.803 71.6914 471.163 71.5414C473.523 71.3914 476.373 71.2814 479.703 71.2214V69.8614C479.703 66.7714 477.093 65.2314 471.883 65.2314C468.183 65.2314 464.093 66.0214 459.613 67.5914C457.673 68.3214 456.373 67.6814 455.703 65.6814L453.523 58.9614C452.913 57.1414 453.553 55.8414 455.433 55.0514C461.433 52.6314 467.944 51.4214 474.974 51.4214C482.544 51.4214 488.283 52.9014 492.193 55.8714C496.103 58.8414 498.053 63.1714 498.053 68.8714V98.4814H498.073ZM479.724 80.3014C475.424 80.3614 472.393 80.8014 470.633 81.6214C468.873 82.4414 467.993 83.9414 467.993 86.1214C467.993 87.5714 468.433 88.7114 469.313 89.5314C470.193 90.3514 471.423 90.7614 472.993 90.7614C477.473 90.7614 479.724 88.5214 479.724 84.0414V80.3014Z" fill="#181B20"/>
</svg>
