<svg width="161" height="134" viewBox="0 0 161 134" fill="none" xmlns="http://www.w3.org/2000/svg">
<path d="M51.873 106.231L43.233 121.661C40.553 126.451 36.303 130.031 31.333 131.931C33.883 132.911 36.663 133.461 39.653 133.461C48.003 133.461 55.703 128.951 59.783 121.661L68.423 106.231C71.253 101.181 75.513 97.7613 80.273 95.9513C70.203 92.1313 57.853 95.5613 51.873 106.231Z" fill="#E2000F"/>
<path d="M157.563 99.1313L108.673 11.7913C102.693 1.11128 90.3429 -2.30872 80.2729 1.51128C85.0429 3.32128 89.303 6.74128 92.123 11.7913L141.013 99.1313C148.163 111.901 141.693 127.141 129.203 131.931C131.793 132.921 134.573 133.461 137.433 133.461C155.063 133.461 166.173 114.511 157.563 99.1313Z" fill="#E2000F"/>
<path d="M19.5232 99.1313L68.4132 11.7913C71.2432 6.74128 75.5032 3.32128 80.2632 1.51128C70.1932 -2.30872 57.8432 1.11128 51.8632 11.7913L2.97318 99.1313C-5.63682 114.511 5.48319 133.461 23.1032 133.461C25.9632 133.461 28.7432 132.921 31.3332 131.931C18.8432 127.141 12.3732 111.901 19.5232 99.1313Z" fill="#2D00FF"/>
<path d="M117.313 121.661L108.673 106.231C102.693 95.5512 90.3434 92.1312 80.2734 95.9512C85.0434 97.7612 89.3035 101.181 92.1235 106.231L100.763 121.661C104.843 128.951 112.543 133.461 120.893 133.461C123.873 133.461 126.663 132.911 129.213 131.931C124.243 130.031 119.993 126.451 117.313 121.661Z" fill="#2D00FF"/>
<path d="M141.023 99.1313L92.1331 11.7912C89.3031 6.74123 85.0431 3.32123 80.2831 1.51123C75.5131 3.32123 71.2531 6.74123 68.4331 11.7912L19.5431 99.1313C12.3931 111.901 18.8631 127.141 31.3531 131.931C36.3231 130.031 40.5731 126.451 43.2531 121.661L51.8931 106.231C57.8731 95.5512 70.2231 92.1312 80.2931 95.9512C90.3631 92.1312 102.713 95.5512 108.693 106.231L117.333 121.661C120.013 126.451 124.263 130.031 129.233 131.931C141.703 127.141 148.173 111.901 141.023 99.1313Z" fill="black"/>
</svg>
